<mxfile host="app.diagrams.net" agent="Mozilla/5.0 (Macintosh; Intel Mac OS X 10_15_7) AppleWebKit/605.1.15 (KHTML, like Gecko) Version/17.6 Safari/605.1.15" version="24.7.17">
  <diagram name="Page-1" id="xvy7mOasu-qAgkp31h3f">
    <mxGraphModel dx="954" dy="647" grid="1" gridSize="10" guides="1" tooltips="1" connect="1" arrows="1" fold="1" page="1" pageScale="1" pageWidth="827" pageHeight="1169" math="0" shadow="0">
      <root>
        <mxCell id="0" />
        <mxCell id="1" parent="0" />
        <mxCell id="KG6Z_K08ybHtx14p88j_-1" value="Entity" style="whiteSpace=wrap;html=1;align=center;" parent="1" vertex="1">
          <mxGeometry x="360" y="320" width="100" height="40" as="geometry" />
        </mxCell>
        <mxCell id="KG6Z_K08ybHtx14p88j_-2" value="Attribute" style="ellipse;whiteSpace=wrap;html=1;align=center;" parent="1" vertex="1">
          <mxGeometry x="360" y="320" width="100" height="40" as="geometry" />
        </mxCell>
        <mxCell id="KG6Z_K08ybHtx14p88j_-3" value="Entity" style="whiteSpace=wrap;html=1;align=center;" parent="1" vertex="1">
          <mxGeometry x="360" y="320" width="100" height="40" as="geometry" />
        </mxCell>
        <mxCell id="KG6Z_K08ybHtx14p88j_-4" value="Attribute" style="ellipse;whiteSpace=wrap;html=1;align=center;" parent="1" vertex="1">
          <mxGeometry x="280" y="220" width="100" height="40" as="geometry" />
        </mxCell>
        <mxCell id="KG6Z_K08ybHtx14p88j_-5" value="Attribute" style="ellipse;whiteSpace=wrap;html=1;align=center;" parent="1" vertex="1">
          <mxGeometry x="480" y="220" width="100" height="40" as="geometry" />
        </mxCell>
        <mxCell id="KG6Z_K08ybHtx14p88j_-6" value="" style="endArrow=none;html=1;rounded=0;" parent="1" source="KG6Z_K08ybHtx14p88j_-4" target="KG6Z_K08ybHtx14p88j_-3" edge="1">
          <mxGeometry relative="1" as="geometry">
            <mxPoint x="330" y="340" as="sourcePoint" />
            <mxPoint x="490" y="340" as="targetPoint" />
          </mxGeometry>
        </mxCell>
        <mxCell id="KG6Z_K08ybHtx14p88j_-7" value="M" style="resizable=0;html=1;whiteSpace=wrap;align=left;verticalAlign=bottom;" parent="KG6Z_K08ybHtx14p88j_-6" connectable="0" vertex="1">
          <mxGeometry x="-1" relative="1" as="geometry" />
        </mxCell>
        <mxCell id="KG6Z_K08ybHtx14p88j_-8" value="N" style="resizable=0;html=1;whiteSpace=wrap;align=right;verticalAlign=bottom;" parent="KG6Z_K08ybHtx14p88j_-6" connectable="0" vertex="1">
          <mxGeometry x="1" relative="1" as="geometry" />
        </mxCell>
        <mxCell id="KG6Z_K08ybHtx14p88j_-9" value="" style="endArrow=none;html=1;rounded=0;" parent="1" source="KG6Z_K08ybHtx14p88j_-3" target="KG6Z_K08ybHtx14p88j_-5" edge="1">
          <mxGeometry relative="1" as="geometry">
            <mxPoint x="330" y="340" as="sourcePoint" />
            <mxPoint x="490" y="340" as="targetPoint" />
          </mxGeometry>
        </mxCell>
        <mxCell id="KG6Z_K08ybHtx14p88j_-10" value="1" style="resizable=0;html=1;whiteSpace=wrap;align=right;verticalAlign=bottom;" parent="KG6Z_K08ybHtx14p88j_-9" connectable="0" vertex="1">
          <mxGeometry x="1" relative="1" as="geometry" />
        </mxCell>
      </root>
    </mxGraphModel>
  </diagram>
</mxfile>
